<svg xmlns="http://www.w3.org/2000/svg" xmlns:xlink="http://www.w3.org/1999/xlink" width="39.375" height="20.508" viewBox="0 0 39.375 20.508">
  <defs>
    <linearGradient id="linear-gradient" x1="0.5" x2="0.5" y2="1" gradientUnits="objectBoundingBox">
      <stop offset="0" stop-color="#cc2f7a"/>
      <stop offset="1" stop-color="#8b3365"/>
    </linearGradient>
  </defs>
  <g id="group-2" transform="translate(0 -6.5)">
    <g id="Group_56" data-name="Group 56" transform="translate(29.531 8.961)">
      <path id="Path_217" data-name="Path 217" d="M21.281,14.563a3.281,3.281,0,1,1,3.281-3.281A3.291,3.291,0,0,1,21.281,14.563Zm0-4.922a1.55,1.55,0,0,0-1.641,1.641,1.641,1.641,0,0,0,3.281,0A1.55,1.55,0,0,0,21.281,9.641Z" transform="translate(-18 -8)" fill="url(#linear-gradient)"/>
    </g>
    <g id="Group_57" data-name="Group 57" transform="translate(29.531 17.164)">
      <path id="Path_218" data-name="Path 218" d="M27.023,19.563a.775.775,0,0,1-.82-.82V17.1a2.523,2.523,0,0,0-2.461-2.461H18.82a.82.82,0,0,1,0-1.641h4.922a4.062,4.062,0,0,1,4.1,4.1v1.641A.775.775,0,0,1,27.023,19.563Z" transform="translate(-18 -13)" fill="url(#linear-gradient)"/>
    </g>
    <g id="Group_58" data-name="Group 58" transform="translate(3.281 8.961)">
      <path id="Path_219" data-name="Path 219" d="M5.281,14.563a3.281,3.281,0,1,1,3.281-3.281A3.291,3.291,0,0,1,5.281,14.563Zm0-4.922a1.55,1.55,0,0,0-1.641,1.641,1.55,1.55,0,0,0,1.641,1.641,1.55,1.55,0,0,0,1.641-1.641A1.55,1.55,0,0,0,5.281,9.641Z" transform="translate(-2 -8)" fill="url(#linear-gradient)"/>
    </g>
    <g id="Group_59" data-name="Group 59" transform="translate(0 17.164)">
      <path id="Path_220" data-name="Path 220" d="M.82,19.563a.775.775,0,0,1-.82-.82V17.1A4.062,4.062,0,0,1,4.1,13H9.023a.82.82,0,0,1,0,1.641H4.1A2.523,2.523,0,0,0,1.641,17.1v1.641A.775.775,0,0,1,.82,19.563Z" transform="translate(0 -13)" fill="url(#linear-gradient)"/>
    </g>
    <g id="Group_60" data-name="Group 60" transform="translate(14.766 6.5)">
      <path id="Path_221" data-name="Path 221" d="M13.922,16.344A4.834,4.834,0,0,1,9,11.422,4.834,4.834,0,0,1,13.922,6.5a4.834,4.834,0,0,1,4.922,4.922A4.834,4.834,0,0,1,13.922,16.344Zm0-8.2A3.281,3.281,0,1,0,17.2,11.422,3.291,3.291,0,0,0,13.922,8.141Z" transform="translate(-9 -6.5)" fill="url(#linear-gradient)"/>
    </g>
    <g id="Group_61" data-name="Group 61" transform="translate(10.664 18.805)">
      <path id="Path_222" data-name="Path 222" d="M23.727,22.2a.775.775,0,0,1-.82-.82V18.1a2.523,2.523,0,0,0-2.461-2.461H10.6A2.523,2.523,0,0,0,8.141,18.1v3.281a.775.775,0,0,1-.82.82.775.775,0,0,1-.82-.82V18.1A4.062,4.062,0,0,1,10.6,14h9.844a4.062,4.062,0,0,1,4.1,4.1v3.281A.775.775,0,0,1,23.727,22.2Z" transform="translate(-6.5 -14)" fill="url(#linear-gradient)"/>
    </g>
  </g>
</svg>
