<svg id="Group_53" data-name="Group 53" xmlns="http://www.w3.org/2000/svg" width="34.433" height="32.827" viewBox="0 0 34.433 32.827">
  <path id="contact" d="M29.39,4.807A17.537,17.537,0,0,0,17.216,0,17.537,17.537,0,0,0,5.042,4.807a15.878,15.878,0,0,0,0,23.212,17.537,17.537,0,0,0,12.174,4.807,17.985,17.985,0,0,0,5.227-.77l-.612-1.833a15.878,15.878,0,0,1-4.615.68c-8.381,0-15.2-6.5-15.2-14.49s6.818-14.49,15.2-14.49,15.2,6.5,15.2,14.49v5.375a3.74,3.74,0,0,1-3.822,3.643H27.4l2.394-2.282-6.53-6.225L20.74,19.331a22.5,22.5,0,0,1-3.182-2.54,21.889,21.889,0,0,1-2.709-3.1l2.515-2.4-6.53-6.225L7.487,8.264l-.028.027c-1.268,1.308-1.376,3.473-.306,6.1A22.15,22.15,0,0,0,12.4,21.653a23.2,23.2,0,0,0,7.7,5.033,9.916,9.916,0,0,0,3.343.668l.12,0v0h5.026a5.714,5.714,0,0,0,5.839-5.567V16.413A15.931,15.931,0,0,0,29.39,4.807ZM20.824,24.89a21.151,21.151,0,0,1-6.994-4.6c-4.66-4.442-6.317-9.187-4.9-10.684l1.9-1.815L14.51,11.3l-2.234,2.129.424.648a23.261,23.261,0,0,0,3.43,4.075,24.055,24.055,0,0,0,4.2,3.228l.681.409,2.248-2.144,3.676,3.5-1.85,1.763a2.226,2.226,0,0,1-1.487.519h-.037v0A7.658,7.658,0,0,1,20.824,24.89Z" transform="translate(0 0)" fill="#eaebf3"/>
</svg>
