<svg xmlns="http://www.w3.org/2000/svg" xmlns:xlink="http://www.w3.org/1999/xlink" width="56" height="56" viewBox="0 0 56 56">
  <defs>
    <linearGradient id="linear-gradient" x1="0.5" x2="0.5" y2="1" gradientUnits="objectBoundingBox">
      <stop offset="0" stop-color="#cc2f7a"/>
      <stop offset="1" stop-color="#8b3365"/>
    </linearGradient>
  </defs>
  <g id="Group_104" data-name="Group 104" transform="translate(-6338 -2820)">
    <g id="XMLID_1497_" transform="translate(6338 2820)">
      <g id="XMLID_1687_">
        <path id="XMLID_898_" d="M30.461,56H25.539a3.281,3.281,0,0,1-.82-6.459V48.18a.659.659,0,0,0-.538-.641,19.71,19.71,0,0,1-7.292-3.02.663.663,0,0,0-.838.071l-.971.971a3.275,3.275,0,0,1-5.139,3.979l-3.48-3.48a3.282,3.282,0,0,1,3.988-5.148l.962-.962a.663.663,0,0,0,.071-.838,19.71,19.71,0,0,1-3.02-7.292.659.659,0,0,0-.641-.538H6.46a3.286,3.286,0,0,1-3.3,2.459A3.3,3.3,0,0,1,0,30.409V25.539A3.281,3.281,0,0,1,3.393,22.26a3.323,3.323,0,0,1,3.052,2.459H7.82a.659.659,0,0,0,.641-.538,19.71,19.71,0,0,1,3.02-7.292.663.663,0,0,0-.071-.838l-.962-.962A3.282,3.282,0,0,1,6.461,9.941l3.48-3.48a3.282,3.282,0,0,1,5.148,3.988l.962.962a.662.662,0,0,0,.838.071,19.711,19.711,0,0,1,7.292-3.02.659.659,0,0,0,.538-.641V6.459A3.281,3.281,0,0,1,25.539,0h4.922a3.281,3.281,0,0,1,.82,6.459V7.82a.659.659,0,0,0,.538.641,19.71,19.71,0,0,1,7.292,3.02.663.663,0,0,0,.838-.071l.963-.963a3.281,3.281,0,0,1,5.147-3.987l3.48,3.48a3.282,3.282,0,0,1-3.988,5.148l-.962.962a.663.663,0,0,0-.071.838,19.71,19.71,0,0,1,3.02,7.292.659.659,0,0,0,.641.538h1.373a3.312,3.312,0,0,1,2.871-2.448h0A3.281,3.281,0,0,1,56,25.539v4.922a3.275,3.275,0,0,1-6.447.82H48.18a.659.659,0,0,0-.641.538,19.71,19.71,0,0,1-3.02,7.292.663.663,0,0,0,.071.838l.962.962a3.282,3.282,0,0,1,3.988,5.148l-3.48,3.48A3.275,3.275,0,0,1,40.92,45.56l-.971-.971a.662.662,0,0,0-.838-.071,19.711,19.711,0,0,1-7.292,3.02.659.659,0,0,0-.538.641v1.361A3.281,3.281,0,0,1,30.461,56ZM16.511,42.215a2.86,2.86,0,0,1,1.6.489A17.533,17.533,0,0,0,24.6,45.391a2.85,2.85,0,0,1,2.308,2.789v2.078a1.369,1.369,0,0,1-1.367,1.367,1.094,1.094,0,0,0,0,2.188h4.922a1.094,1.094,0,0,0,0-2.187,1.369,1.369,0,0,1-1.367-1.367V48.18A2.85,2.85,0,0,1,31.4,45.391,17.536,17.536,0,0,0,37.888,42.7a2.854,2.854,0,0,1,3.608.338l1.5,1.5a1.319,1.319,0,0,1,0,1.864,1.126,1.126,0,0,0-.1,1.506,1.094,1.094,0,0,0,1.616.076l3.48-3.48a1.094,1.094,0,0,0-1.547-1.547L46.411,43a1.319,1.319,0,0,1-1.864,0l-1.5-1.5a2.854,2.854,0,0,1-.338-3.608A17.534,17.534,0,0,0,45.391,31.4a2.85,2.85,0,0,1,2.789-2.308h2.127a1.319,1.319,0,0,1,1.318,1.318,1.126,1.126,0,0,0,.991,1.139,1.094,1.094,0,0,0,1.2-1.089V25.539a1.094,1.094,0,0,0-1.2-1.089,1.126,1.126,0,0,0-.991,1.139,1.319,1.319,0,0,1-1.318,1.318H48.18A2.85,2.85,0,0,1,45.391,24.6,17.536,17.536,0,0,0,42.7,18.112a2.854,2.854,0,0,1,.338-3.608l1.469-1.469a1.369,1.369,0,0,1,1.934,0,1.094,1.094,0,1,0,1.547-1.547l-3.48-3.48a1.094,1.094,0,1,0-1.547,1.547,1.369,1.369,0,0,1,0,1.934L41.5,12.957a2.854,2.854,0,0,1-3.608.338A17.533,17.533,0,0,0,31.4,10.609,2.85,2.85,0,0,1,29.094,7.82V5.742a1.369,1.369,0,0,1,1.367-1.367,1.094,1.094,0,0,0,0-2.187H25.539a1.094,1.094,0,1,0,0,2.188,1.369,1.369,0,0,1,1.367,1.367V7.82A2.85,2.85,0,0,1,24.6,10.609,17.536,17.536,0,0,0,18.112,13.3a2.854,2.854,0,0,1-3.608-.338l-1.469-1.469a1.367,1.367,0,0,1,0-1.934,1.094,1.094,0,0,0-1.547-1.547l-3.48,3.48a1.094,1.094,0,0,0,1.547,1.547,1.369,1.369,0,0,1,1.934,0L12.957,14.5a2.854,2.854,0,0,1,.338,3.608A17.534,17.534,0,0,0,10.609,24.6,2.85,2.85,0,0,1,7.82,26.906H5.685a1.311,1.311,0,0,1-1.31-1.31,1.133,1.133,0,0,0-1.055-1.15,1.094,1.094,0,0,0-1.132,1.093v4.869A1.131,1.131,0,0,0,3.24,31.554a1.094,1.094,0,0,0,1.135-1.093,1.369,1.369,0,0,1,1.367-1.367H7.82A2.85,2.85,0,0,1,10.609,31.4,17.536,17.536,0,0,0,13.3,37.888a2.854,2.854,0,0,1-.338,3.608l-1.5,1.5a1.319,1.319,0,0,1-1.864,0l-.035-.035a1.094,1.094,0,0,0-1.547,1.547l3.48,3.48a1.094,1.094,0,0,0,1.616-.076,1.126,1.126,0,0,0-.1-1.506,1.319,1.319,0,0,1,0-1.864l1.5-1.5a2.833,2.833,0,0,1,2.007-.827Z" transform="translate(0 0)" fill="url(#linear-gradient)"/>
      </g>
      <g id="XMLID_1654_" transform="translate(19.182 14.205)">
        <path id="XMLID_895_" d="M179.968,139.065a4.594,4.594,0,1,1,4.594-4.594A4.6,4.6,0,0,1,179.968,139.065Zm0-7a2.406,2.406,0,1,0,2.406,2.406A2.409,2.409,0,0,0,179.968,132.065Z" transform="translate(-175.374 -129.878)" fill="url(#linear-gradient)"/>
      </g>
      <g id="XMLID_1656_" transform="translate(16.698 30.968)">
        <path id="XMLID_892_" d="M156.641,291.086a3.974,3.974,0,1,1,3.974-3.974A3.978,3.978,0,0,1,156.641,291.086Zm0-5.76a1.786,1.786,0,1,0,1.786,1.786A1.788,1.788,0,0,0,156.641,285.326Z" transform="translate(-152.667 -283.138)" fill="url(#linear-gradient)"/>
      </g>
      <g id="XMLID_1104_" transform="translate(28.922 24.353)">
        <path id="XMLID_891_" d="M271.142,236.128a6.751,6.751,0,0,1-6.709-5.965,1.094,1.094,0,1,1,2.173-.254,4.568,4.568,0,1,0,5.044-5.076,1.094,1.094,0,1,1,.24-2.174,6.755,6.755,0,0,1-.748,13.469Z" transform="translate(-264.426 -222.653)" fill="url(#linear-gradient)"/>
      </g>
      <g id="XMLID_1101_" transform="translate(33.141 17.706)">
        <path id="XMLID_890_" d="M304.094,164.067a1.094,1.094,0,1,1,.773-.32A1.1,1.1,0,0,1,304.094,164.067Z" transform="translate(-303 -161.88)" fill="url(#linear-gradient)"/>
      </g>
      <g id="XMLID_1094_" transform="translate(26.906 39.922)">
        <path id="XMLID_889_" d="M247.094,367.188a1.094,1.094,0,1,1,.773-.321A1.1,1.1,0,0,1,247.094,367.188Z" transform="translate(-246 -365)" fill="url(#linear-gradient)"/>
      </g>
      <g id="XMLID_1660_" transform="translate(14.62 26.92)">
        <path id="XMLID_888_" d="M134.764,248.317a1.094,1.094,0,1,1,.773-.32A1.1,1.1,0,0,1,134.764,248.317Z" transform="translate(-133.67 -246.13)" fill="url(#linear-gradient)"/>
      </g>
      <g id="XMLID_1493_" transform="translate(30.529 25.99)">
        <path id="XMLID_887_" d="M280.214,239.807a1.095,1.095,0,1,1,.773-.321A1.1,1.1,0,0,1,280.214,239.807Z" transform="translate(-279.12 -237.62)" fill="url(#linear-gradient)"/>
      </g>
    </g>
  </g>
</svg>
