<svg id="interface" xmlns="http://www.w3.org/2000/svg" xmlns:xlink="http://www.w3.org/1999/xlink" width="30.775" height="30.775" viewBox="0 0 30.775 30.775">
  <defs>
    <linearGradient id="linear-gradient" x1="0.5" x2="0.5" y2="1" gradientUnits="objectBoundingBox">
      <stop offset="0" stop-color="#cc2f7a"/>
      <stop offset="1" stop-color="#8b3365"/>
    </linearGradient>
  </defs>
  <path id="Path_211" data-name="Path 211" d="M.987,19.235a.64.64,0,0,1-.624-.5A15.211,15.211,0,0,1,0,15.388,15.4,15.4,0,0,1,15.388,0,15.249,15.249,0,0,1,27.579,6.022a.641.641,0,0,1-1.018.78A13.977,13.977,0,0,0,15.388,1.282,14.122,14.122,0,0,0,1.282,15.388a13.97,13.97,0,0,0,.331,3.065.641.641,0,0,1-.485.767.669.669,0,0,1-.141.015Z" fill="url(#linear-gradient)"/>
  <path id="Path_212" data-name="Path 212" d="M14.713,28.235A15.249,15.249,0,0,1,2.522,22.213a.641.641,0,1,1,1.018-.78,13.977,13.977,0,0,0,11.173,5.519A14.122,14.122,0,0,0,28.818,12.847a13.23,13.23,0,0,0-.341-3.057.641.641,0,1,1,1.248-.3,14.579,14.579,0,0,1,.376,3.353A15.4,15.4,0,0,1,14.713,28.235Z" transform="translate(0.675 2.541)" fill="url(#linear-gradient)"/>
  <path id="Path_213" data-name="Path 213" d="M2.705,25.694a.642.642,0,0,1-.641-.635L2,18.648A.644.644,0,0,1,2.641,18H9.053a.641.641,0,1,1,0,1.282H3.289l.058,5.764a.641.641,0,0,1-.635.648H2.705Z" transform="translate(0.565 5.082)" fill="url(#linear-gradient)"/>
  <path id="Path_214" data-name="Path 214" d="M23.053,7.694H16.641a.641.641,0,0,1,0-1.282h5.77V.641a.641.641,0,1,1,1.282,0V7.053A.641.641,0,0,1,23.053,7.694Z" transform="translate(4.517)" fill="url(#linear-gradient)"/>
  <path id="Path_215" data-name="Path 215" d="M9.206,19.258H7.923A1.926,1.926,0,0,1,6,17.335V10.923A1.926,1.926,0,0,1,7.923,9H9.206a1.926,1.926,0,0,1,1.923,1.923v6.412A1.926,1.926,0,0,1,9.206,19.258ZM7.923,10.282a.641.641,0,0,0-.641.641v6.412a.641.641,0,0,0,.641.641H9.206a.641.641,0,0,0,.641-.641V10.923a.641.641,0,0,0-.641-.641Z" transform="translate(1.694 2.541)" fill="url(#linear-gradient)"/>
  <path id="Path_216" data-name="Path 216" d="M16.7,20.311h-.975a12.865,12.865,0,0,1-6.4-1.38.641.641,0,0,1,.636-1.113,11.707,11.707,0,0,0,5.76,1.21H16.7a1.889,1.889,0,0,0,1.854-1.514c0-.021.008-.04.013-.059.077-.374.681-3.969.7-4.324a1.808,1.808,0,0,0-1.808-1.8H13.932a.642.642,0,0,1-.532-1,4.07,4.07,0,0,0,.494-2.04c0-1.28-.514-1.744-.859-1.744-.121.017-.256.2-.256,1.154,0,1.986-1.977,3.437-2.827,3.967a.641.641,0,0,1-.68-1.087c.522-.326,2.225-1.5,2.225-2.88,0-.791,0-2.436,1.539-2.436,1.031,0,2.141.946,2.141,3.026a5.814,5.814,0,0,1-.265,1.757h2.548a3.094,3.094,0,0,1,3.09,3.09,17.124,17.124,0,0,1-.782,4.569l.056.009A3.158,3.158,0,0,1,16.7,20.311Z" transform="translate(2.532 1.488)" fill="url(#linear-gradient)"/>
</svg>
