<svg xmlns="http://www.w3.org/2000/svg" xmlns:xlink="http://www.w3.org/1999/xlink" width="41.035" height="43.589" viewBox="0 0 41.035 43.589">
  <defs>
    <linearGradient id="linear-gradient" x1="0.5" x2="0.5" y2="1" gradientUnits="objectBoundingBox">
      <stop offset="0" stop-color="#cc2f7a"/>
      <stop offset="1" stop-color="#8b3365"/>
    </linearGradient>
  </defs>
  <g id="coronavirus" transform="translate(-15)">
    <g id="Group_54" data-name="Group 54" transform="translate(15)">
      <path id="Path_185" data-name="Path 185" d="M51.554,9.854h-.448V6.831a.851.851,0,0,0-.851-.851h-1.7V1.7h2.337a.851.851,0,0,0,0-1.7h-13a6.16,6.16,0,0,0-3.427,1.037l-2.7,1.8A.851.851,0,1,0,32.7,4.255l2.7-1.8A4.463,4.463,0,0,1,37.884,1.7h4.968V5.979h-1.7a.851.851,0,0,0-.851.851V9.854h-.448a4.486,4.486,0,0,0-4.481,4.481v3.374c-.914.98-3.341,3.759-3.341,5.639a4.2,4.2,0,0,0,3.341,4.106v1.755l-3.911-.247a17.286,17.286,0,0,0-6.305.766l-.059.021-9.557,3.8a.851.851,0,0,0-.537.791V41.9a.851.851,0,0,0,1.076.821l7.036-1.927L31.3,43.109a12.637,12.637,0,0,0,3.443.476q.588,0,1.173-.054a.848.848,0,0,0,.308.057H55.183a.851.851,0,0,0,.851-.851V36.031a.851.851,0,0,0-1.7,0v5.855H41.1l.18-.106L51.7,35.531a2.956,2.956,0,0,0-1.475-5.491q-.046-.1-.1-.2a3.017,3.017,0,0,0-4.144-1.205l-.466.253a3.017,3.017,0,0,0-4.04-1.026L38.587,29.42a2.933,2.933,0,0,0-.417-.034l-1.1-.07V27.453a4.2,4.2,0,0,0,3.341-4.063h13.92v4.944a.851.851,0,1,0,1.7,0v-14a4.486,4.486,0,0,0-4.481-4.481Zm-.241,22.615a1.252,1.252,0,0,1-.493,1.6L40.4,40.32a11.029,11.029,0,0,1-8.646,1.151l-8.411-2.38a.852.852,0,0,0-.457,0l-6.188,1.7v-5.87l8.99-3.571a15.584,15.584,0,0,1,5.657-.681l6.738.426.054,0h0a1.217,1.217,0,0,1,1.124,1.684l-.02.048a1.263,1.263,0,0,1-1.166.786h0c-2.9,0-9.254,0-9.254,0a.851.851,0,0,0-.228,1.672l9.674,2.686a.851.851,0,0,0,.645-.078L49.561,31.9a1.253,1.253,0,0,1,1.752.566ZM46.8,30.124l.015-.008a1.315,1.315,0,0,1,1.737.4L38.389,36.228l-3.311-.919h3a2.961,2.961,0,0,0,2.737-1.834l.02-.048q.02-.048.038-.1Zm-4.507-.774.015-.008a1.315,1.315,0,0,1,1.7.357l-3.1,1.678a2.938,2.938,0,0,0-.557-.978ZM44.554,1.7h2.3V5.979h-2.3ZM42,7.682h7.4V9.854H42Zm-4.929,6.652a2.781,2.781,0,0,1,2.778-2.778H51.554a2.781,2.781,0,0,1,2.778,2.778v2.792H37.071Zm-.851,11.5a2.493,2.493,0,0,1-2.49-2.49c0-.877,1.307-2.7,2.49-4.042,1.183,1.345,2.49,3.165,2.49,4.042A2.493,2.493,0,0,1,36.22,25.838Zm3.742-4.15a14.623,14.623,0,0,0-1.908-2.858H54.332v2.858Z" transform="translate(-15)" fill="url(#linear-gradient)"/>
      <path id="Path_186" data-name="Path 186" d="M177.556,78.548a3.412,3.412,0,0,0,3.408-3.408c0-1.671-2.329-4.164-2.8-4.646a.851.851,0,0,0-1.224,0c-.467.483-2.8,2.975-2.8,4.646A3.412,3.412,0,0,0,177.556,78.548Zm0-6.2a7.02,7.02,0,0,1,1.7,2.788,1.7,1.7,0,1,1-3.41,0A7.018,7.018,0,0,1,177.556,72.353Z" transform="translate(-160.599 -64.256)" fill="url(#linear-gradient)"/>
      <path id="Path_187" data-name="Path 187" d="M478.339,368.372a.851.851,0,1,0,.328,1A.859.859,0,0,0,478.339,368.372Z" transform="translate(-437.683 -336.882)" fill="url(#linear-gradient)"/>
    </g>
  </g>
</svg>
