<svg id="user" xmlns="http://www.w3.org/2000/svg" xmlns:xlink="http://www.w3.org/1999/xlink" width="21.251" height="25.471" viewBox="0 0 21.251 25.471">
  <defs>
    <linearGradient id="linear-gradient" x1="0.5" x2="0.5" y2="1" gradientUnits="objectBoundingBox">
      <stop offset="0" stop-color="#cc2f7a"/>
      <stop offset="1" stop-color="#8b3365"/>
    </linearGradient>
  </defs>
  <path id="Path_209" data-name="Path 209" d="M93.166,12.27a5.936,5.936,0,0,0,4.338-1.8,5.937,5.937,0,0,0,1.8-4.338A5.937,5.937,0,0,0,97.5,1.8a6.133,6.133,0,0,0-8.675,0,5.936,5.936,0,0,0-1.8,4.337,5.936,5.936,0,0,0,1.8,4.338A5.938,5.938,0,0,0,93.166,12.27ZM89.884,2.853a4.641,4.641,0,0,1,6.564,0,4.435,4.435,0,0,1,1.36,3.282,4.435,4.435,0,0,1-1.36,3.282,4.64,4.64,0,0,1-6.564,0,4.434,4.434,0,0,1-1.36-3.282A4.435,4.435,0,0,1,89.884,2.853Zm0,0" transform="translate(-82.702)" fill="url(#linear-gradient)"/>
  <path id="Path_210" data-name="Path 210" d="M21.2,254.6a15.153,15.153,0,0,0-.206-1.609,12.681,12.681,0,0,0-.4-1.618,7.994,7.994,0,0,0-.665-1.509,5.689,5.689,0,0,0-1-1.307,4.423,4.423,0,0,0-1.441-.905,4.98,4.98,0,0,0-1.84-.333,1.867,1.867,0,0,0-1,.423c-.3.195-.648.42-1.039.67a5.951,5.951,0,0,1-1.344.592,5.219,5.219,0,0,1-3.288,0,5.935,5.935,0,0,1-1.343-.592c-.387-.247-.736-.472-1.04-.67a1.865,1.865,0,0,0-1-.423,4.974,4.974,0,0,0-1.839.333,4.419,4.419,0,0,0-1.441.905,5.69,5.69,0,0,0-1,1.307,8.009,8.009,0,0,0-.665,1.509,12.711,12.711,0,0,0-.4,1.618,15.049,15.049,0,0,0-.206,1.61c-.034.486-.051.993-.051,1.5a4.23,4.23,0,0,0,1.256,3.2,4.522,4.522,0,0,0,3.237,1.181H16.758a4.522,4.522,0,0,0,3.237-1.181,4.228,4.228,0,0,0,1.256-3.2C21.251,255.59,21.233,255.084,21.2,254.6Zm-2.234,3.623a3.044,3.044,0,0,1-2.208.769H4.493a3.044,3.044,0,0,1-2.208-.769,2.762,2.762,0,0,1-.793-2.119c0-.477.016-.949.047-1.4a13.575,13.575,0,0,1,.187-1.449,11.211,11.211,0,0,1,.348-1.427,6.519,6.519,0,0,1,.541-1.227,4.218,4.218,0,0,1,.737-.966,2.934,2.934,0,0,1,.959-.6,3.435,3.435,0,0,1,1.176-.227c.052.028.145.081.3.179.307.2.661.428,1.052.678a7.4,7.4,0,0,0,1.687.754,6.71,6.71,0,0,0,4.206,0,7.4,7.4,0,0,0,1.688-.754c.4-.256.744-.477,1.051-.677.151-.1.244-.151.3-.179a3.437,3.437,0,0,1,1.176.227,2.938,2.938,0,0,1,.958.6,4.206,4.206,0,0,1,.737.966,6.5,6.5,0,0,1,.542,1.227,11.183,11.183,0,0,1,.348,1.427,13.688,13.688,0,0,1,.187,1.45h0c.032.451.048.922.048,1.4A2.762,2.762,0,0,1,18.965,258.222Zm0,0" transform="translate(0 -235.013)" fill="url(#linear-gradient)"/>
</svg>
