<svg id="sad-2" xmlns="http://www.w3.org/2000/svg" width="65" height="65" viewBox="0 0 65 65">
  <g id="Group_106" data-name="Group 106">
    <g id="Group_105" data-name="Group 105">
      <path id="Path_246" data-name="Path 246" d="M32.5,0A32.5,32.5,0,1,0,65,32.5,32.537,32.537,0,0,0,32.5,0Zm0,62.174A29.674,29.674,0,1,1,62.174,32.5,29.706,29.706,0,0,1,32.5,62.174Z" fill="#eaebf3"/>
      <path id="Path_247" data-name="Path 247" d="M104.478,132.239a4.239,4.239,0,1,0-4.239,4.239A4.244,4.244,0,0,0,104.478,132.239Zm-5.652,0a1.413,1.413,0,1,1,1.413,1.413A1.415,1.415,0,0,1,98.826,132.239Z" transform="translate(-79.043 -105.391)" fill="#eaebf3"/>
      <path id="Path_248" data-name="Path 248" d="M228.239,128a4.239,4.239,0,1,0,4.239,4.239A4.244,4.244,0,0,0,228.239,128Zm0,5.652a1.413,1.413,0,1,1,1.413-1.413A1.414,1.414,0,0,1,228.239,133.652Z" transform="translate(-184.435 -105.391)" fill="#eaebf3"/>
      <path id="Path_249" data-name="Path 249" d="M118.133,224a18.486,18.486,0,0,0-13.77,6.123,1.413,1.413,0,0,0,2.105,1.885,15.72,15.72,0,0,1,23.329,0,1.413,1.413,0,1,0,2.105-1.885A18.489,18.489,0,0,0,118.133,224Z" transform="translate(-85.633 -184.435)" fill="#eaebf3"/>
    </g>
  </g>
</svg>
