<svg xmlns="http://www.w3.org/2000/svg" width="39.873" height="49.068" viewBox="0 0 39.873 49.068">
  <g id="Virus_Symptoms_Cough" data-name="Virus Symptoms Cough" transform="translate(-48.011 -0.021)">
    <g id="Outline" transform="translate(48.011 0.021)">
      <path id="Path_231" data-name="Path 231" d="M313.522,158.327a.767.767,0,0,0,0,1.533c2.534,0,3.834-2.016,3.834-4.6,0-4.86-5.367-4.849-5.367-.767a.767.767,0,0,0,1.534,0c0-2.1,2.3-1.98,2.3.767C315.822,156.182,315.6,158.327,313.522,158.327Z" transform="translate(-286.688 -136.998)" fill="#8b3365"/>
      <path id="Path_232" data-name="Path 232" d="M293.355,384a5.373,5.373,0,0,0-5.367,5.367V395.5a.767.767,0,0,0,1.533,0v-6.134a3.834,3.834,0,1,1,7.667,0V395.5a.767.767,0,0,0,1.533,0v-6.134A5.373,5.373,0,0,0,293.355,384Z" transform="translate(-264.989 -347.199)" fill="#8b3365"/>
      <path id="Path_233" data-name="Path 233" d="M128.767,257.533H130.3a.767.767,0,0,0,0-1.533h-1.532a.767.767,0,1,0,0,1.533Z" transform="translate(-120.334 -231.467)" fill="#8b3365"/>
      <path id="Path_234" data-name="Path 234" d="M175.988,312.823v1.533a.767.767,0,0,0,1.533,0v-1.533A.767.767,0,0,0,175.988,312.823Z" transform="translate(-163.723 -282.156)" fill="#8b3365"/>
      <path id="Path_235" data-name="Path 235" d="M136.223,289.656a.768.768,0,0,0,.542,1.309c.544,0,.672-.445,2.076-1.758a.767.767,0,0,0-1.084-1.084Z" transform="translate(-127.567 -260.298)" fill="#8b3365"/>
      <path id="Path_236" data-name="Path 236" d="M57.211,286.134a2.3,2.3,0,0,0-2.3,2.3v1.73a.571.571,0,0,1-1.111.18l-1.158-3.475.921-3.686A2.562,2.562,0,0,0,51.077,280c-.947,0-.677.879-3.018,6.631-.153.408-.066.085,2.251,10.324v4.513a.767.767,0,1,0,1.533,0v-4.6c0-.165.114.439-2.268-9.915l1.987-5.3a1.029,1.029,0,0,1,.513,1.158c-.968,4.038-1.083,3.958-.959,4.331l1.229,3.686a2.1,2.1,0,0,0,4.1-.665v-1.73a.767.767,0,0,1,1.533,0,11.97,11.97,0,0,1-2.147,7.974c-.3.406-.094.423.2,5.119a.767.767,0,0,0,1.529-.118l-.332-4.318a13.482,13.482,0,0,0,2.281-8.658,2.3,2.3,0,0,0-2.3-2.3Z" transform="translate(-48.011 -253.167)" fill="#8b3365"/>
      <path id="Path_237" data-name="Path 237" d="M166.716,15.884c.9-3.812.762-7.265-.379-9.723A5.223,5.223,0,0,0,162.326,2.9c-1.69-3.177-5.464-3.188-9-2.541a.767.767,0,0,0,.276,1.508c7.836-1.435,6.832,2.475,8.193,2.525a3.7,3.7,0,0,1,3.149,2.414c.983,2.117,1.084,5.3.277,8.726a31.953,31.953,0,0,1-5.842,11.789,7.628,7.628,0,0,1-3.148-2.457.767.767,0,0,0-1.231.914,9.282,9.282,0,0,0,3.861,2.988V31.76a33.228,33.228,0,0,1-10.7,3.447c2.261-3.238,1.228-.4,1.5-6.052a.767.767,0,0,0-.295-.6c-.512-.4-.815-.006-4.09.719a2.148,2.148,0,0,1-2.312-.893c.9-.581,2.409-.777,2.053-1.779-.553-1.555-1.105-2.648-3.437-2.51-.383-1.114-.315-1.47-.719-1.719L139.1,21.283c1.918-2.55,2.128-2.54,2.128-3V14.072c2.4.914,4.466.315,9.967.515a.767.767,0,0,0,0-1.533h-7.1c-.144-.1-6.121.63-6.663-8.384,2.341,1.217,6.227-.116,10.344-1.313a.767.767,0,0,0-.431-1.472c-4.487,1.406-8.889,2.686-10.008.718a.763.763,0,0,0-1.449.292c-.251,3.485.78,8.209,3.811,10.359v4.767l-2.33,3a.767.767,0,0,0,.2,1.124l2.243,1.38c.37.859.311,2.3,1.328,2.153,1.683-.243,1.938.173,2.2.8-1.005.638-2.4.79-2.111,1.765a3.679,3.679,0,0,0,4.422,2.515l2.48-.62v2.569c-3.343,4.013-6.134,10-6.134,15.617a.767.767,0,0,0,1.533,0,22.914,22.914,0,0,1,3.589-11.51c5.123-.166,10.51-2.7,12.287-3.605,7.28,10.045,3.34,15.882,5.592,15.882a.767.767,0,0,0,.767-.767A24.652,24.652,0,0,0,160.4,31.967V28.515A33.67,33.67,0,0,0,166.716,15.884Z" transform="translate(-127.43 -0.021)" fill="#8b3365"/>
      <path id="Path_238" data-name="Path 238" d="M281.533,8.822a.767.767,0,0,0-1.533,0A.767.767,0,0,0,281.533,8.822Z" transform="translate(-257.766 -7.291)" fill="#8b3365"/>
    </g>
  </g>
</svg>
