<svg xmlns="http://www.w3.org/2000/svg" width="40.464" height="44.705" viewBox="0 0 40.464 44.705">
  <g id="cough-2" transform="translate(-25.016 0)">
    <path id="Path_226" data-name="Path 226" d="M64.733,17.945a2.972,2.972,0,0,0-2.493-1.3H61.072L60.608,12.4c-.15-1.39-.056-1.535.409-1.992.179-.176.381-.351.6-.537A7.128,7.128,0,0,0,64.47,4.291a.875.875,0,0,0-1.091-.9c-.468.119-.9.234-1.276.336-2.767.743-3.424.92-6.035-.686C51.794.414,47.964-.5,44.358.254a17.388,17.388,0,0,0-7.078,3.7l-.419.318a5.332,5.332,0,0,0-4.2.537,6.214,6.214,0,0,0-2.878,4.427,40.1,40.1,0,0,0-.446,7.412H28.256a2.972,2.972,0,0,0-2.493,1.3,4.553,4.553,0,0,0-.747,2.6c0,2.258,1.407,4.658,4.015,4.658H29.6a17.268,17.268,0,0,0,3.556,7.014A19.687,19.687,0,0,0,29.3,37.045a.873.873,0,0,0,.767,1.295h0l2.373-.007a1.18,1.18,0,0,1,.775.413l1.305,1.979a2.891,2.891,0,0,0,2.231,1.2h.009l2.376-.007a1.178,1.178,0,0,1,.772.413l1.3,1.98a.876.876,0,0,0,.732.394h.034a.876.876,0,0,0,.733-.452c.572-1.035,1.158-2.072,1.726-3.074q.643-1.135,1.242-2.2a11.929,11.929,0,0,0,3.616-.8A16.991,16.991,0,0,0,52.607,36.5a.874.874,0,1,0-.954-1.465,15.24,15.24,0,0,1-2.963,1.5,12.012,12.012,0,0,1-1.977.561c2-3.723,3.256-6.7,2.7-8.668a2.675,2.675,0,0,0-1.327-1.667c-1.842-1.011-5.376-.434-9.223,1.505a25.175,25.175,0,0,0-4.372,2.8,13.957,13.957,0,0,1-3.4-8.224V17.892A12.205,12.205,0,0,1,36.971,14.6a4.294,4.294,0,0,1,2.895.164c.282.083.6.178.958.271A97.8,97.8,0,0,0,57.6,18.087l1.807.21V22.85A12.963,12.963,0,0,1,56.954,29.8a.875.875,0,0,0,1.455.973A16.55,16.55,0,0,0,60.891,25.2h.575c2.608,0,4.015-2.4,4.015-4.658a4.554,4.554,0,0,0-.747-2.6ZM39.649,29.828c3.553-1.791,6.506-2.127,7.587-1.534a.948.948,0,0,1,.487.615c.553,1.943-2.172,6.757-4.807,11.412-.339.6-.685,1.209-1.03,1.825l-.508-.772a2.9,2.9,0,0,0-2.24-1.2l-2.38.007h0a1.168,1.168,0,0,1-.767-.413l-1.305-1.979a2.9,2.9,0,0,0-2.242-1.2l-.8,0A21.676,21.676,0,0,1,39.649,29.828ZM29.031,23.456c-1.66,0-2.263-1.741-2.263-2.912a2.852,2.852,0,0,1,.431-1.6,1.215,1.215,0,0,1,1.058-.552h1.081v4.456q0,.3.019.607Zm28.774-7.1a96.435,96.435,0,0,1-16.539-3c-.329-.086-.621-.172-.9-.255a7.474,7.474,0,0,0-2.216-.419,6.082,6.082,0,0,0-1.65.248,13.719,13.719,0,0,0-5.407,2.644,34.131,34.131,0,0,1,.425-6.075,4.453,4.453,0,0,1,2.041-3.183,3.6,3.6,0,0,1,3.168-.248.877.877,0,0,0,.821-.118c.258-.19.52-.39.8-.6,3.415-2.6,8.093-6.167,16.8-.813,3.254,2,4.557,1.653,7.407.887a5.322,5.322,0,0,1-2.095,3.141c-.224.195-.456.4-.674.61-1.051,1.034-1.087,1.875-.921,3.424l.43,3.937Zm3.661,7.1h-.323c.013-.2.02-.407.02-.607V18.394H62.24a1.215,1.215,0,0,1,1.058.552,2.852,2.852,0,0,1,.431,1.6c0,1.17-.6,2.912-2.263,2.912Z" transform="translate(0)" fill="#8b3365"/>
    <path id="Path_227" data-name="Path 227" d="M309.76,236.872a1.048,1.048,0,0,0-.441-1.415l-2.615-1.371,2.615-1.371a1.048,1.048,0,0,0-.973-1.856l-4.385,2.3a1.048,1.048,0,0,0,0,1.856l4.385,2.3a1.047,1.047,0,0,0,1.415-.441Z" transform="translate(-254.741 -211.167)" fill="#8b3365"/>
    <path id="Path_228" data-name="Path 228" d="M146.884,236.871a1.047,1.047,0,0,0,1.415.441l4.384-2.3a1.048,1.048,0,0,0,0-1.856l-4.384-2.3a1.048,1.048,0,1,0-.973,1.856l2.615,1.371-2.615,1.371A1.048,1.048,0,0,0,146.884,236.871Z" transform="translate(-111.407 -211.166)" fill="#8b3365"/>
    <path id="Path_229" data-name="Path 229" d="M179.56,350.506a1.043,1.043,0,0,0,.554-.159,20.46,20.46,0,0,1,5.855-2.545,1.048,1.048,0,0,0-.5-2.036,22.571,22.571,0,0,0-6.467,2.8,1.048,1.048,0,0,0,.556,1.937Z" transform="translate(-140.594 -316.138)" fill="#8b3365"/>
    <path id="Path_230" data-name="Path 230" d="M359.328,372.009l0,0a1.048,1.048,0,1,0,1.485,0A1.046,1.046,0,0,0,359.325,372.012Z" transform="translate(-305.008 -339.511)" fill="#8b3365"/>
  </g>
</svg>
