<svg xmlns="http://www.w3.org/2000/svg" width="30.015" height="38.974" viewBox="0 0 30.015 38.974">
  <g id="trash" transform="translate(-52.849 -2)">
    <path id="Path_239" data-name="Path 239" d="M70.6,19.5a6.943,6.943,0,0,0-1.189,3.987,4.955,4.955,0,0,0,2.151,3.4,9.922,9.922,0,0,0,1.6.991q-.162.455-.36.9a.571.571,0,1,0,1.042.467q.275-.613.486-1.248a6.453,6.453,0,0,0,3.635-3.41,6.241,6.241,0,0,0-.348-4.906,9.97,9.97,0,0,0-4.088-4.3.911.911,0,0,0-1.364.743,4.631,4.631,0,0,1-.316,1.487A9.539,9.539,0,0,1,70.6,19.5Zm2.31-1.467a5.7,5.7,0,0,0,.365-1.474,8.725,8.725,0,0,1,3.308,3.607,5.118,5.118,0,0,1,.317,4.009,4.763,4.763,0,0,1-2.173,2.36,13.9,13.9,0,0,0,.287-2.578l1.027-1.211A.571.571,0,0,0,75.171,22l-.237.28a13.456,13.456,0,0,0-.449-2.245.571.571,0,1,0-1.1.318,12.242,12.242,0,0,1,.485,3.177A7.353,7.353,0,0,0,72.7,22.448a.571.571,0,1,0-.678.919,6.136,6.136,0,0,1,1.751,2,12.218,12.218,0,0,1-.269,1.4,8.689,8.689,0,0,1-1.243-.787,3.816,3.816,0,0,1-1.708-2.6,5.8,5.8,0,0,1,1.007-3.262,9.672,9.672,0,0,0,1.355-2.093ZM88.81,5.493l-.5-1.567a2.352,2.352,0,0,0-2.248-1.642h-6.88A2.111,2.111,0,0,0,77.088,0H70.625a2.114,2.114,0,0,0-2.093,2.284h-6.88A2.352,2.352,0,0,0,59.4,3.926l-.5,1.567A1.158,1.158,0,0,0,60.007,7h.968l1.007,29.215a2.844,2.844,0,0,0,2.853,2.756H82.879a2.844,2.844,0,0,0,2.853-2.757l.293-8.486a.571.571,0,0,0-1.141-.039l-.293,8.486a1.707,1.707,0,0,1-1.712,1.654h-1.77L82.21,7H85.6l-.625,18.006a.571.571,0,0,0,.551.59h.02a.571.571,0,0,0,.57-.551L86.738,7h.968a1.158,1.158,0,0,0,1.1-1.51ZM70.625,1.142h6.463a.987.987,0,0,1,.952,1.142H69.674A.984.984,0,0,1,70.625,1.142Zm-5.79,36.691a1.706,1.706,0,0,1-1.712-1.654L62.117,7H65.5l1.1,30.829ZM87.72,5.855a.013.013,0,0,1-.013.007H71.793a.571.571,0,1,0,0,1.142h9.275l-1.1,30.829H67.747L66.646,7h2.468a.571.571,0,1,0,0-1.142H60.007a.016.016,0,0,1-.016-.021l.5-1.567a1.214,1.214,0,0,1,1.16-.848h24.41a1.214,1.214,0,0,1,1.16.848l.5,1.567a.013.013,0,0,1,0,.015Z" transform="translate(-6 2)" fill="#8b3365"/>
  </g>
</svg>
