<svg xmlns="http://www.w3.org/2000/svg" width="41.154" height="41.247" viewBox="0 0 41.154 41.247">
  <g id="hand-sanitizer" transform="translate(-0.578)">
    <path id="Path_240" data-name="Path 240" d="M147.18,359.828a.6.6,0,0,0-.427-.177h-12.1a2.575,2.575,0,0,1-1.816-.756l-5.52-5.563a.6.6,0,0,0-.857.851l5.52,5.564a3.791,3.791,0,0,0,2.673,1.113H146.5l4.931,4.931a.6.6,0,0,0,.854-.854Z" transform="translate(-115.589 -324.72)" fill="#8b3365"/>
    <path id="Path_241" data-name="Path 241" d="M114.774,259.843l-5.857-5.857A5.181,5.181,0,0,0,99.36,253a.071.071,0,0,1-.062.04H96.423l-4.693-4.693a2.315,2.315,0,0,0-3.861.988,2.262,2.262,0,0,0-3.744.986,2.443,2.443,0,0,0-3.2,3.673l1.356,1.366a.6.6,0,0,0,.857-.851l-1.357-1.368a1.235,1.235,0,1,1,1.747-1.747l7.019,7.019a.6.6,0,0,0,.427.177h9.18a.6.6,0,1,0,0-1.208h-6.2a1.567,1.567,0,0,1,0-3.135H99.3a1.276,1.276,0,0,0,1.129-.682,3.973,3.973,0,0,1,7.364.884.6.6,0,0,0,.159.28l5.971,5.971a.6.6,0,1,0,.854-.854ZM91.22,257.379l-5.673-5.673a1.057,1.057,0,0,1,1.5-1.494l4.4,4.4a2.769,2.769,0,0,0,.214,2.767Zm.977-3.721-2.891-2.891a1.11,1.11,0,1,1,1.57-1.57l3.839,3.839h-.77A2.762,2.762,0,0,0,92.2,253.659Z" transform="translate(-73.219 -227.725)" fill="#8b3365"/>
    <path id="Path_242" data-name="Path 242" d="M15.81,263.507a.6.6,0,0,0-.6.6v1.346a1.8,1.8,0,0,1-1.8,1.8H3.582a1.8,1.8,0,0,1-1.8-1.8V247.713a.6.6,0,1,0-1.208,0v17.744a3.007,3.007,0,0,0,3,3H13.41a3.007,3.007,0,0,0,3-3v-1.346A.6.6,0,0,0,15.81,263.507Z" transform="translate(0 -227.214)" fill="#8b3365"/>
    <path id="Path_243" data-name="Path 243" d="M1.182,18.529a.6.6,0,0,0,.6-.6v-.77a4.054,4.054,0,0,1,1.147-2.834l2.642-2.728h5.843l2.642,2.728a4.054,4.054,0,0,1,1.147,2.834v1.11a.6.6,0,1,0,1.208,0v-1.11a5.255,5.255,0,0,0-1.487-3.674l-2.82-2.912a.6.6,0,0,0-.088-.075V8.177a1.913,1.913,0,0,0-1.7-1.9V4.187h5.878V5.808A1.244,1.244,0,0,0,17.436,7.05h1.7A1.244,1.244,0,0,0,20.38,5.808V3.849A3.854,3.854,0,0,0,16.531,0H8.151a.6.6,0,1,0,0,1.208h8.38a2.645,2.645,0,0,1,2.642,2.642V5.808a.035.035,0,0,1-.035.035h-1.7a.035.035,0,0,1-.035-.035V3.849a.871.871,0,0,0-.87-.87H3.411a.1.1,0,0,1-.1-.1V1.308a.1.1,0,0,1,.1-.1H5.577A.6.6,0,1,0,5.577,0H3.411A1.309,1.309,0,0,0,2.1,1.308V2.879A1.309,1.309,0,0,0,3.411,4.187H6.676V6.278a1.913,1.913,0,0,0-1.7,1.9V10.5a.606.606,0,0,0-.088.075l-2.82,2.912A5.255,5.255,0,0,0,.578,17.156v.77a.6.6,0,0,0,.6.6ZM9.109,4.187v2.08H7.884V4.187ZM6.884,7.474h3.224a.7.7,0,0,1,.7.7v2.209H6.181V8.177a.7.7,0,0,1,.7-.7Z" transform="translate(0 0)" fill="#8b3365"/>
    <path id="Path_244" data-name="Path 244" d="M215.422,100.12c-1.645,2.335-2.48,4.058-2.48,5.122a4.019,4.019,0,0,0,2.079,3.518.6.6,0,1,0,.583-1.057,2.811,2.811,0,0,1-1.454-2.46c0-.367.22-1.532,2.259-4.426a.671.671,0,0,1,1.1,0,23.921,23.921,0,0,1,1.6,2.548.6.6,0,0,0,1.069-.561,24.785,24.785,0,0,0-1.678-2.683,1.879,1.879,0,0,0-3.071,0Z" transform="translate(-195.266 -91.326)" fill="#8b3365"/>
    <path id="Path_245" data-name="Path 245" d="M264.54,168.788c-1.775,2.381-2.148,3.593-2.148,4.192a2.946,2.946,0,0,0,5.892,0c0-.6-.373-1.811-2.148-4.192a1,1,0,0,0-1.6,0Zm2.537,4.192a1.738,1.738,0,0,1-3.477,0,8.544,8.544,0,0,1,1.738-3.239A8.547,8.547,0,0,1,267.077,172.979Z" transform="translate(-240.735 -154.83)" fill="#8b3365"/>
  </g>
</svg>
