<svg xmlns="http://www.w3.org/2000/svg" xmlns:xlink="http://www.w3.org/1999/xlink" width="47.212" height="47.212" viewBox="0 0 47.212 47.212">
  <defs>
    <linearGradient id="linear-gradient" x1="0.5" x2="0.5" y2="1" gradientUnits="objectBoundingBox">
      <stop offset="0" stop-color="#8b3365"/>
      <stop offset="1" stop-color="#cc2f7a"/>
    </linearGradient>
  </defs>
  <g id="thermometer-check-temperature-healthy-pass" transform="translate(-2 -2)">
    <path id="Path_188" data-name="Path 188" d="M54.327,21.672V5.934A3.934,3.934,0,0,0,50.393,2H29.147a3.147,3.147,0,0,0,0,6.295h1.574v6.861L26.11,22.844a.781.781,0,0,0-.024.755l3.627,7.271a4.759,4.759,0,0,0,4.225,2.6h4.65a.787.787,0,0,1,.787.787v2.361H36.229a3.934,3.934,0,0,0-3.934,3.934v7.869a.787.787,0,0,0,.787.787H53.54a.787.787,0,0,0,.787-.787V38.982a2.368,2.368,0,0,0-2.361-2.361V24.032a2.368,2.368,0,0,0,2.361-2.361ZM33.939,31.9a3.169,3.169,0,0,1-2.817-1.739l-3.439-6.885,1.983-3.3,10.5-3.313v8.4L36.544,31.9Zm9.372-17.885L30.894,17.934l1.29-2.156a.787.787,0,0,0,.11-.4V8.295H43.311Zm.9,1.361h1.456a.787.787,0,0,1,.787.787v1.574a.787.787,0,0,1-.787.787H44.1a.77.77,0,0,0-.685.425l-.008-.008-1.668,3.147V16.164ZM38.59,31.9h-.268l6.019-11.362,3.1,2.581a3.914,3.914,0,0,0,2.518.913h.433v12.59H40.95V34.261A2.368,2.368,0,0,0,38.59,31.9Zm14.164,7.082v8.655H33.869V40.556A2.368,2.368,0,0,1,36.229,38.2H51.966A.787.787,0,0,1,52.753,38.982ZM49.96,22.458a2.361,2.361,0,0,1-1.511-.551L46.2,20.035a2.361,2.361,0,0,0,1.833-2.3V16.163A2.368,2.368,0,0,0,45.672,13.8h-.787V7.508a.787.787,0,0,0-.787-.787H29.147a1.574,1.574,0,1,1,0-3.147H50.393a2.368,2.368,0,0,1,2.361,2.361V21.672a.787.787,0,0,1-.787.787Z" transform="translate(-5.115)" fill="url(#linear-gradient)"/>
    <path id="Path_189" data-name="Path 189" d="M15.082,11.574h-.787v-.787A.787.787,0,0,0,13.508,10H10.361A2.368,2.368,0,0,0,8,12.361V29.672a.787.787,0,0,0,.787.787h3.147a.787.787,0,0,0,.787-.787V27.311h2.361a.787.787,0,0,0,.787-.787V21.8a.787.787,0,0,0-.787-.787H12.721V19.442h.787a.787.787,0,0,0,.787-.787v-.787h.787a2.368,2.368,0,0,0,2.361-2.361V13.934a2.368,2.368,0,0,0-2.361-2.361ZM11.147,28.885H9.574V19.442h1.574Zm3.147-6.295v3.147H12.721V22.59Zm-1.574-4.721H9.574V12.361a.787.787,0,0,1,.787-.787h2.361Zm3.147-2.361a.787.787,0,0,1-.787.787h-.787V13.147h.787a.787.787,0,0,1,.787.787Z" transform="translate(-1.279 -1.705)" fill="url(#linear-gradient)"/>
    <path id="Path_190" data-name="Path 190" d="M22,15h3.147v1.574H22Z" transform="translate(-4.263 -2.771)" fill="url(#linear-gradient)"/>
    <path id="Path_191" data-name="Path 191" d="M0,0H3.519V1.574H0Z" transform="translate(17.376 9.952) rotate(-26.565)" fill="url(#linear-gradient)"/>
    <path id="Path_192" data-name="Path 192" d="M0,0H1.574V3.519H0Z" transform="translate(17.375 16.085) rotate(-63.435)" fill="url(#linear-gradient)"/>
    <path id="Path_193" data-name="Path 193" d="M11.442,38a9.442,9.442,0,1,0,9.442,9.442A9.442,9.442,0,0,0,11.442,38Zm0,17.311a7.869,7.869,0,1,1,7.869-7.869,7.869,7.869,0,0,1-7.869,7.869Z" transform="translate(0 -7.673)" fill="url(#linear-gradient)"/>
    <path id="Path_194" data-name="Path 194" d="M12,51.032,9.406,48.44,8.293,49.553,11.44,52.7a.787.787,0,0,0,1.113,0l6.295-6.295-1.113-1.113Z" transform="translate(-1.341 -9.227)" fill="url(#linear-gradient)"/>
    <path id="Path_195" data-name="Path 195" d="M39.147,14.574a1.574,1.574,0,0,1,1.574,1.574h1.574a3.147,3.147,0,1,0-6.295,0h1.574A1.574,1.574,0,0,1,39.147,14.574Z" transform="translate(-7.247 -2.345)" fill="url(#linear-gradient)"/>
  </g>
</svg>
